<svg xmlns="http://www.w3.org/2000/svg" viewBox="0 0 820 868" width="820" height="868" font-family="-apple-system,BlinkMacSystemFont,'Segoe UI',Roboto,Helvetica,Arial,sans-serif" role="img" aria-label="Architecture of the prompt-extraction-lab harness">
<defs>
<marker id="arw" markerWidth="9" markerHeight="9" refX="5.4" refY="3" orient="auto" markerUnits="userSpaceOnUse"><path d="M0,0 L6,3 L0,6 Z" fill="#2dd4bf"/></marker>
<filter id="cardsh" x="-12%" y="-20%" width="124%" height="150%"><feDropShadow dx="0" dy="2" stdDeviation="5" flood-color="#000000" flood-opacity="0.45"/></filter>
<filter id="glow" x="-40%" y="-40%" width="180%" height="180%"><feDropShadow dx="0" dy="0" stdDeviation="9" flood-color="#2dd4bf" flood-opacity="0.55"/></filter>
<radialGradient id="bgglow" cx="50%" cy="20%" r="60%"><stop offset="0%" stop-color="#2dd4bf" stop-opacity="0.10"/><stop offset="100%" stop-color="#2dd4bf" stop-opacity="0"/></radialGradient>
</defs>
<rect x="0" y="0" width="820" height="868" rx="20" fill="#0b0d11"/>
<rect x="1" y="1" width="818" height="866" rx="19" fill="none" stroke="#1b212c" stroke-width="1"/>
<rect x="0" y="0" width="820" height="420" fill="url(#bgglow)"/>
<text x="38" y="50" font-family="'SF Mono',SFMono-Regular,ui-monospace,'JetBrains Mono',Menlo,monospace" font-size="15" font-weight="600" fill="#5fd6c4">prompt-extraction-lab</text>
<text x="782" y="50" text-anchor="end" font-family="'SF Mono',SFMono-Regular,ui-monospace,'JetBrains Mono',Menlo,monospace" font-size="12.5" fill="#6b7686">reproducible from config + seed</text>
<line x1="38" y1="64" x2="782" y2="64" stroke="#1b212c" stroke-width="1"/>
<text transform="translate(24,86) rotate(-90)" font-family="'SF Mono',SFMono-Regular,ui-monospace,'JetBrains Mono',Menlo,monospace" font-size="10.5" letter-spacing="2.5" fill="#525c6c" text-anchor="middle">INPUTS</text>
<text transform="translate(24,478) rotate(-90)" font-family="'SF Mono',SFMono-Regular,ui-monospace,'JetBrains Mono',Menlo,monospace" font-size="10.5" letter-spacing="2.5" fill="#525c6c" text-anchor="middle">ENGINE</text>
<text transform="translate(24,760) rotate(-90)" font-family="'SF Mono',SFMono-Regular,ui-monospace,'JetBrains Mono',Menlo,monospace" font-size="10.5" letter-spacing="2.5" fill="#525c6c" text-anchor="middle">OUTPUTS</text>
<line x1="156" y1="152" x2="410" y2="196" stroke="#2dd4bf" stroke-width="1.6" stroke-opacity="0.7" marker-end="url(#arw)"/>
<line x1="410" y1="152" x2="410" y2="196" stroke="#2dd4bf" stroke-width="1.6" stroke-opacity="0.7" marker-end="url(#arw)"/>
<line x1="664" y1="152" x2="410" y2="196" stroke="#2dd4bf" stroke-width="1.6" stroke-opacity="0.7" marker-end="url(#arw)"/>
<line x1="410" y1="250" x2="410" y2="292" stroke="#2dd4bf" stroke-width="1.6" stroke-opacity="0.7" marker-end="url(#arw)"/>
<line x1="410" y1="352" x2="410" y2="384" stroke="#2dd4bf" stroke-width="1.6" stroke-opacity="0.7" marker-end="url(#arw)"/>
<line x1="410" y1="444" x2="410" y2="476" stroke="#2dd4bf" stroke-width="1.6" stroke-opacity="0.7" marker-end="url(#arw)"/>
<line x1="410" y1="536" x2="410" y2="568" stroke="#2dd4bf" stroke-width="1.6" stroke-opacity="0.7" marker-end="url(#arw)"/>
<line x1="410" y1="628" x2="410" y2="660" stroke="#2dd4bf" stroke-width="1.6" stroke-opacity="0.7" marker-end="url(#arw)"/>
<line x1="410" y1="726" x2="410" y2="766" stroke="#2dd4bf" stroke-width="1.6" stroke-opacity="0.7" marker-end="url(#arw)"/>
<line x1="292.0" y1="796.0" x2="274.0" y2="796.0" stroke="#2dd4bf" stroke-width="1.6" stroke-opacity="0.7" marker-end="url(#arw)"/>
<line x1="528.0" y1="796.0" x2="546.0" y2="796.0" stroke="#2dd4bf" stroke-width="1.6" stroke-opacity="0.7" marker-end="url(#arw)"/>
<rect x="38.0" y="92" width="236" height="60" rx="12" fill="#161b23" stroke="#283040" stroke-width="1" filter="url(#cardsh)"/>
<rect x="38.0" y="103" width="4" height="38" rx="2" fill="#5b6678"/>
<text x="58.0" y="118" font-family="-apple-system,BlinkMacSystemFont,'Segoe UI',Roboto,Helvetica,Arial,sans-serif" font-size="14.5" font-weight="600" fill="#e9edf3">config.yaml</text>
<text x="58.0" y="136" font-family="'SF Mono',SFMono-Regular,ui-monospace,'JetBrains Mono',Menlo,monospace" font-size="10.8" fill="#8b95a6">models · defenses · repeats · seed</text>
<rect x="292.0" y="92" width="236" height="60" rx="12" fill="#161b23" stroke="#283040" stroke-width="1" filter="url(#cardsh)"/>
<rect x="292.0" y="103" width="4" height="38" rx="2" fill="#5b6678"/>
<text x="312.0" y="118" font-family="-apple-system,BlinkMacSystemFont,'Segoe UI',Roboto,Helvetica,Arial,sans-serif" font-size="14.5" font-weight="600" fill="#e9edf3">Ground-truth prompts</text>
<text x="312.0" y="136" font-family="'SF Mono',SFMono-Regular,ui-monospace,'JetBrains Mono',Menlo,monospace" font-size="10.8" fill="#8b95a6">direct · role · in_context</text>
<rect x="546.0" y="92" width="236" height="60" rx="12" fill="#161b23" stroke="#283040" stroke-width="1" filter="url(#cardsh)"/>
<rect x="546.0" y="103" width="4" height="38" rx="2" fill="#5b6678"/>
<text x="566.0" y="118" font-family="-apple-system,BlinkMacSystemFont,'Segoe UI',Roboto,Helvetica,Arial,sans-serif" font-size="14.5" font-weight="600" fill="#e9edf3">Cited attack library</text>
<text x="566.0" y="136" font-family="'SF Mono',SFMono-Regular,ui-monospace,'JetBrains Mono',Menlo,monospace" font-size="10.8" fill="#8b95a6">12 documented techniques</text>
<rect x="38.0" y="196" width="744" height="54" rx="12" fill="#161b23" stroke="#283040" stroke-width="1" filter="url(#cardsh)"/>
<rect x="38.0" y="196" width="744" height="3.5" rx="1.75" fill="#2dd4bf"/>
<text x="410" y="221" text-anchor="middle" font-family="'SF Mono',SFMono-Regular,ui-monospace,'JetBrains Mono',Menlo,monospace" font-size="15" font-weight="600" fill="#e9edf3">run_full</text>
<text x="410" y="239" text-anchor="middle" font-size="11.5" fill="#8b95a6">full matrix loop over every cell</text>
<rect x="254.0" y="292" width="312" height="60" rx="12" fill="#161b23" stroke="#283040" stroke-width="1" filter="url(#cardsh)"/>
<rect x="254.0" y="303" width="4" height="38" rx="2" fill="#2dd4bf"/>
<text x="274.0" y="318" font-family="-apple-system,BlinkMacSystemFont,'Segoe UI',Roboto,Helvetica,Arial,sans-serif" font-size="14.5" font-weight="600" fill="#e9edf3">TargetApp</text>
<text x="274.0" y="336" font-family="'SF Mono',SFMono-Regular,ui-monospace,'JetBrains Mono',Menlo,monospace" font-size="10.8" fill="#8b95a6">secret prompt + chosen defense</text>
<rect x="254.0" y="384" width="312" height="60" rx="12" fill="#161b23" stroke="#283040" stroke-width="1" filter="url(#cardsh)"/>
<rect x="254.0" y="395" width="4" height="38" rx="2" fill="#2dd4bf"/>
<text x="274.0" y="410" font-family="-apple-system,BlinkMacSystemFont,'Segoe UI',Roboto,Helvetica,Arial,sans-serif" font-size="14.5" font-weight="600" fill="#e9edf3">Provider</text>
<text x="274.0" y="428" font-family="'SF Mono',SFMono-Regular,ui-monospace,'JetBrains Mono',Menlo,monospace" font-size="10.8" fill="#8b95a6">Ollama · Anthropic backends</text>
<rect x="254.0" y="476" width="312" height="60" rx="12" fill="#161b23" stroke="#283040" stroke-width="1" filter="url(#cardsh)"/>
<rect x="254.0" y="487" width="4" height="38" rx="2" fill="#2dd4bf"/>
<text x="274.0" y="502" font-family="-apple-system,BlinkMacSystemFont,'Segoe UI',Roboto,Helvetica,Arial,sans-serif" font-size="14.5" font-weight="600" fill="#e9edf3">output_filter</text>
<text x="274.0" y="520" font-family="'SF Mono',SFMono-Regular,ui-monospace,'JetBrains Mono',Menlo,monospace" font-size="10.8" fill="#8b95a6">redact high-overlap replies</text>
<rect x="254.0" y="568" width="312" height="60" rx="12" fill="#161b23" stroke="#283040" stroke-width="1" filter="url(#cardsh)"/>
<rect x="254.0" y="579" width="4" height="38" rx="2" fill="#2dd4bf"/>
<text x="274.0" y="594" font-family="-apple-system,BlinkMacSystemFont,'Segoe UI',Roboto,Helvetica,Arial,sans-serif" font-size="14.5" font-weight="600" fill="#e9edf3">Scoring</text>
<text x="274.0" y="612" font-family="'SF Mono',SFMono-Regular,ui-monospace,'JetBrains Mono',Menlo,monospace" font-size="10.8" fill="#8b95a6">exact · Rouge-L · token-F1</text>
<rect x="230.0" y="660" width="360" height="66" rx="13" fill="#0e2723" stroke="#2dd4bf" stroke-width="1.6" filter="url(#glow)"/>
<rect x="230.0" y="671" width="4" height="44" rx="2" fill="#2dd4bf"/>
<text x="250.0" y="688" font-family="-apple-system,BlinkMacSystemFont,'Segoe UI',Roboto,Helvetica,Arial,sans-serif" font-size="14.5" font-weight="600" fill="#e9edf3">Verifier</text>
<text x="250.0" y="707" font-family="'SF Mono',SFMono-Regular,ui-monospace,'JetBrains Mono',Menlo,monospace" font-size="10.8" fill="#8b95a6">ground truth + self-agreement</text>
<text x="574.0" y="682" text-anchor="end" font-family="'SF Mono',SFMono-Regular,ui-monospace,'JetBrains Mono',Menlo,monospace" font-size="9.5" letter-spacing="1.5" fill="#2dd4bf">NO GROUND TRUTH</text>
<rect x="38.0" y="766" width="236" height="60" rx="12" fill="#161b23" stroke="#283040" stroke-width="1" filter="url(#cardsh)"/>
<rect x="38.0" y="777" width="4" height="38" rx="2" fill="#3f9f93"/>
<text x="58.0" y="792" font-family="-apple-system,BlinkMacSystemFont,'Segoe UI',Roboto,Helvetica,Arial,sans-serif" font-size="14.5" font-weight="600" fill="#e9edf3">Aggregate</text>
<text x="58.0" y="810" font-family="'SF Mono',SFMono-Regular,ui-monospace,'JetBrains Mono',Menlo,monospace" font-size="10.8" fill="#8b95a6">summary tables</text>
<rect x="292.0" y="766" width="236" height="60" rx="12" fill="#161b23" stroke="#283040" stroke-width="1" filter="url(#cardsh)"/>
<rect x="292.0" y="777" width="4" height="38" rx="2" fill="#38bdf8"/>
<text x="312.0" y="792" font-family="'SF Mono',SFMono-Regular,ui-monospace,'JetBrains Mono',Menlo,monospace" font-size="13.5" font-weight="600" fill="#e9edf3">results.json / .csv</text>
<text x="312.0" y="810" font-family="'SF Mono',SFMono-Regular,ui-monospace,'JetBrains Mono',Menlo,monospace" font-size="10.8" fill="#8b95a6">scored · committed</text>
<rect x="546.0" y="766" width="236" height="60" rx="12" fill="#161b23" stroke="#283040" stroke-width="1" filter="url(#cardsh)"/>
<rect x="546.0" y="777" width="4" height="38" rx="2" fill="#3f9f93"/>
<text x="566.0" y="792" font-family="-apple-system,BlinkMacSystemFont,'Segoe UI',Roboto,Helvetica,Arial,sans-serif" font-size="14.5" font-weight="600" fill="#e9edf3">Figures</text>
<text x="566.0" y="810" font-family="'SF Mono',SFMono-Regular,ui-monospace,'JetBrains Mono',Menlo,monospace" font-size="10.8" fill="#8b95a6">heatmap · bars · scatter</text>
</svg>